<svg width="51" height="51" viewBox="0 0 51 51" fill="none" xmlns="http://www.w3.org/2000/svg">
<g clip-path="url(#clip0_1768_2158)">
<path d="M22.0072 34.1496L18.8644 47.3638C18.8022 47.615 18.6872 47.85 18.5271 48.0532C18.367 48.2564 18.1654 48.4232 17.9358 48.5424C17.6935 48.6476 17.4321 48.7019 17.1679 48.7019C16.9038 48.7019 16.6424 48.6476 16.4001 48.5424L4.54295 43.3638C4.29423 43.2463 4.07539 43.0739 3.90283 42.8596C3.73028 42.6453 3.6085 42.3948 3.54664 42.1267C3.48478 41.8587 3.48445 41.5801 3.54566 41.3119C3.60688 41.0437 3.72805 40.7928 3.90009 40.5781L13.0787 29.0781" fill="#FFF8FC" fill-opacity="0.66"/>
<path d="M22.0072 34.1496L18.8644 47.3638C18.8022 47.615 18.6872 47.85 18.5271 48.0532C18.367 48.2564 18.1654 48.4232 17.9358 48.5424C17.6935 48.6476 17.4321 48.7019 17.1679 48.7019C16.9038 48.7019 16.6424 48.6476 16.4001 48.5424L4.54294 43.3638C4.29423 43.2463 4.07539 43.0739 3.90283 42.8596C3.73028 42.6453 3.6085 42.3948 3.54664 42.1267C3.48478 41.8587 3.48445 41.5801 3.54566 41.3119C3.60688 41.0437 3.72805 40.7928 3.90009 40.5781L13.0787 29.0781" stroke="#FF267B" stroke-width="3" stroke-linecap="round" stroke-linejoin="round"/>
<path d="M29.1484 33.9699L32.3627 47.3627C32.4266 47.6181 32.5462 47.8562 32.7129 48.0599C32.8796 48.2637 33.0893 48.4281 33.327 48.5413C33.5627 48.6478 33.8184 48.7029 34.077 48.7029C34.3356 48.7029 34.5913 48.6478 34.827 48.5413L46.6127 43.3627C46.8652 43.2465 47.087 43.0731 47.2606 42.8561C47.4342 42.639 47.5548 42.3845 47.6127 42.1127C47.6804 41.8468 47.6833 41.5686 47.6212 41.3014C47.559 41.0341 47.4337 40.7857 47.2556 40.577L37.6842 28.3984" fill="#FFF8FC" fill-opacity="0.66"/>
<path d="M29.1484 33.9699L32.3627 47.3627C32.4266 47.6181 32.5462 47.8562 32.7129 48.0599C32.8796 48.2637 33.0893 48.4281 33.327 48.5413C33.5627 48.6478 33.8184 48.7029 34.077 48.7029C34.3356 48.7029 34.5913 48.6478 34.827 48.5413L46.6127 43.3627C46.8652 43.2466 47.087 43.0731 47.2606 42.8561C47.4342 42.639 47.5548 42.3845 47.6127 42.1127C47.6804 41.8468 47.6833 41.5686 47.6212 41.3014C47.559 41.0341 47.4337 40.7857 47.2556 40.577L37.6842 28.3984" stroke="#FF267B" stroke-width="3" stroke-linecap="round" stroke-linejoin="round"/>
<path d="M25.1183 34.4358C33.9943 34.4358 41.1897 27.2404 41.1897 18.3644C41.1897 9.48839 33.9943 2.29297 25.1183 2.29297C16.2423 2.29297 9.04688 9.48839 9.04688 18.3644C9.04688 27.2404 16.2423 34.4358 25.1183 34.4358Z" fill="#FFF8FC" fill-opacity="0.66"/>
<path d="M25.1183 34.4358C33.9943 34.4358 41.1897 27.2404 41.1897 18.3644C41.1897 9.48839 33.9943 2.29297 25.1183 2.29297C16.2423 2.29297 9.04688 9.48839 9.04688 18.3644C9.04688 27.2404 16.2423 34.4358 25.1183 34.4358Z" fill="#F6F6F6"/>
<path d="M25.1183 34.4358C33.9943 34.4358 41.1897 27.2404 41.1897 18.3644C41.1897 9.48839 33.9943 2.29297 25.1183 2.29297C16.2423 2.29297 9.04688 9.48839 9.04688 18.3644C9.04688 27.2404 16.2423 34.4358 25.1183 34.4358Z" stroke="#FF267B" stroke-width="3" stroke-linecap="round" stroke-linejoin="round"/>
<path d="M25.1116 25.5084C29.0565 25.5084 32.2545 22.3104 32.2545 18.3655C32.2545 14.4206 29.0565 11.2227 25.1116 11.2227C21.1667 11.2227 17.9688 14.4206 17.9688 18.3655C17.9688 22.3104 21.1667 25.5084 25.1116 25.5084Z" fill="white" stroke="#FF267B" stroke-width="3" stroke-linecap="round" stroke-linejoin="round"/>
</g>
<defs>
<clipPath id="clip0_1768_2158">
<rect width="50" height="50" fill="white" transform="translate(0.5 0.5)"/>
</clipPath>
</defs>
</svg>
