<svg width="51" height="51" viewBox="0 0 51 51" fill="none" xmlns="http://www.w3.org/2000/svg">
<g clip-path="url(#clip0_1768_2207)">
<path d="M27.2824 45.1423C15.4477 45.1423 5.85379 35.5484 5.85379 23.7137C5.85379 11.8791 15.4477 2.28516 27.2824 2.28516C39.117 2.28516 48.7109 11.8791 48.7109 23.7137C48.7109 35.5484 39.117 45.1423 27.2824 45.1423Z" stroke="#FF267B" stroke-width="3" stroke-linecap="round" stroke-linejoin="round"/>
<path d="M12.1406 38.8555L2.28348 48.7126" stroke="#FF267B" stroke-width="3" stroke-linecap="round" stroke-linejoin="round"/>
<path d="M27.2812 14.7868V9.42969" stroke="#FF267B" stroke-width="3" stroke-linecap="round" stroke-linejoin="round"/>
<path d="M32.6406 29.0709C32.6406 31.7494 30.2478 32.6423 27.2835 32.6423C24.3192 32.6423 21.9263 32.6423 21.9263 29.0709C21.9263 23.7137 32.6406 23.7137 32.6406 18.3566C32.6406 14.7852 30.2478 14.7852 27.2835 14.7852C24.3192 14.7852 21.9263 16.1423 21.9263 18.3566" stroke="#FF267B" stroke-width="3" stroke-linecap="round" stroke-linejoin="round"/>
<path d="M27.2812 32.6406V37.9978" stroke="#FF267B" stroke-width="3" stroke-linecap="round" stroke-linejoin="round"/>
</g>
<defs>
<clipPath id="clip0_1768_2207">
<rect width="50" height="50" fill="white" transform="translate(0.5 0.5)"/>
</clipPath>
</defs>
</svg>
