<svg width="38" height="35" viewBox="0 0 38 35" fill="none" xmlns="http://www.w3.org/2000/svg">
<path d="M38 16.5409C38 14.1562 31.4802 12.1665 22.816 11.7075L22.8153 7.90776H33.6335V0H4.05209V7.90776H14.8694V11.726C6.36308 12.2166 0 14.1855 0 16.5409C0 18.8967 6.36308 20.8658 14.8694 21.3554V35H22.8153V21.374C31.4802 20.916 38 18.9257 38 16.5409ZM18.9999 18.8902C9.70012 18.8902 2.16095 17.4576 2.16095 15.6895C2.16095 14.1923 7.56693 12.9354 14.8694 12.5857V13.4869H14.8703V17.1797C16.1868 17.2532 17.5705 17.2917 18.9999 17.2917C20.3161 17.2917 21.5943 17.2584 22.8162 17.1975V12.572C30.277 12.9003 35.8392 14.1704 35.8392 15.6895C35.8391 17.4576 28.2997 18.8902 18.9999 18.8902Z" fill="white"/>
</svg>
