<svg width="43" height="44" viewBox="0 0 43 44" fill="none" xmlns="http://www.w3.org/2000/svg">
<g clip-path="url(#clip0_1793_2020)">
<path fill-rule="evenodd" clip-rule="evenodd" d="M0 0.5V43.5H43V0.5H0ZM36.367 10.0148L31.315 34.3156C31.196 34.8893 30.5232 35.1493 30.0485 34.8044L23.152 29.7974C22.7333 29.4933 22.1624 29.5095 21.7616 29.8363L17.9379 32.9532C17.4942 33.3161 16.8255 33.1138 16.6556 32.5673L14.0005 24.0287L7.14102 21.4686C6.44423 21.2076 6.43828 20.2239 7.13309 19.9562L35.2846 9.09613C35.8814 8.86534 36.4971 9.38815 36.367 10.0148Z" fill="black"/>
<path fill-rule="evenodd" clip-rule="evenodd" d="M29.6336 14.4085L16.2276 22.6651C15.7138 22.9822 15.4719 23.6027 15.6377 24.1837L17.0871 29.2767C17.1902 29.6375 17.7138 29.6006 17.764 29.2278L18.1407 26.4349C18.2118 25.909 18.4626 25.4243 18.8515 25.0625L29.9152 14.7782C30.1224 14.5863 29.8744 14.2606 29.6336 14.4085Z" fill="black"/>
</g>
<defs>
<clipPath id="clip0_1793_2020">
<rect y="0.5" width="43" height="43" rx="5" fill="white"/>
</clipPath>
</defs>
</svg>
